<?xml version="1.0" standalone="no"?>
<!DOCTYPE svg PUBLIC "-//W3C//DTD SVG 20010904//EN"
 "http://www.w3.org/TR/2001/REC-SVG-20010904/DTD/svg10.dtd">
<svg version="1.0" xmlns="http://www.w3.org/2000/svg"
 width="651.000000pt" height="461.000000pt" viewBox="0 0 651.000000 461.000000"
 preserveAspectRatio="xMidYMid meet">

<g transform="translate(0.000000,461.000000) scale(0.100000,-0.100000)"
fill="#000000" stroke="none">
<path d="M1650 4601 c-77 -24 -159 -91 -220 -181 -21 -30 -81 -141 -134 -245
-52 -105 -119 -230 -147 -280 -154 -271 -321 -626 -354 -750 -17 -68 -20 -157
-5 -186 24 -43 106 -12 143 54 147 258 489 925 606 1180 34 73 65 127 83 142
84 71 198 -6 383 -259 44 -60 114 -152 155 -206 41 -53 111 -150 155 -215 135
-198 236 -326 294 -372 70 -55 177 -108 261 -127 91 -22 240 -20 331 3 106 27
288 107 426 187 65 37 172 96 238 131 147 78 185 114 185 179 0 50 -39 144
-106 254 -68 110 -89 181 -62 208 7 7 28 12 48 12 59 0 94 -52 145 -215 34
-111 131 -316 265 -559 145 -264 162 -318 109 -346 -46 -25 -120 7 -259 114
-87 67 -215 82 -370 46 -145 -35 -418 -179 -495 -261 l-30 -32 50 7 c28 3 109
27 180 52 530 185 498 184 640 33 169 -178 223 -213 334 -213 107 -1 149 42
159 161 12 152 -43 307 -221 623 -39 69 -113 210 -165 315 -168 338 -210 386
-342 387 -73 1 -121 -22 -150 -73 -35 -64 -26 -120 43 -258 31 -62 57 -125 57
-138 0 -38 -28 -89 -63 -116 -95 -71 -407 -232 -607 -313 -84 -35 -104 -39
-180 -39 -115 0 -176 30 -285 139 -167 168 -466 547 -644 816 -180 273 -322
380 -451 341z"/>
<path d="M1664 3951 c-28 -10 -73 -31 -100 -47 -60 -35 -176 -143 -216 -201
-27 -41 -29 -46 -17 -81 34 -106 106 -202 186 -249 72 -42 129 -54 249 -54
260 0 381 71 465 270 l31 76 -88 84 c-107 100 -191 164 -253 192 -66 31 -189
36 -257 10z m242 -86 c125 -78 152 -254 57 -365 -67 -78 -160 -105 -257 -75
-106 34 -170 122 -170 235 0 77 24 130 80 180 57 49 90 61 170 58 59 -3 79 -8
120 -33z"/>
<path d="M1624 3782 c-23 -15 -34 -50 -24 -76 6 -16 6 -27 0 -31 -6 -4 -10
-22 -10 -41 0 -69 68 -97 117 -48 20 20 24 31 18 52 -4 15 -7 46 -6 69 1 31
-5 49 -19 63 -20 20 -56 26 -76 12z m54 -49 c5 -17 -26 -29 -40 -15 -6 6 -7
15 -3 22 9 14 37 9 43 -7z m6 -85 c13 -22 -14 -54 -38 -45 -16 6 -22 48 -9 61
11 11 35 3 47 -16z"/>
<path d="M1752 3678 c2 -92 6 -113 18 -113 12 0 15 19 15 110 0 97 -2 110 -18
113 -16 3 -17 -6 -15 -110z"/>
<path d="M1810 3731 c0 -52 3 -62 26 -80 15 -12 37 -21 50 -21 20 0 24 -5 24
-29 0 -34 18 -51 31 -30 10 16 12 179 3 203 -3 9 -12 16 -20 16 -9 0 -14 -18
-16 -57 -3 -54 -5 -58 -28 -58 -23 0 -25 4 -30 55 -4 42 -9 56 -22 58 -16 3
-18 -5 -18 -57z"/>
<path d="M321 2328 c-89 -25 -173 -122 -191 -221 -7 -33 -10 -156 -8 -297 3
-273 3 -272 89 -284 37 -6 50 -3 72 14 l27 21 0 254 c0 155 4 265 11 282 26
71 95 105 153 78 95 -45 103 -191 13 -245 -18 -11 -47 -20 -65 -20 -67 0 -106
-79 -64 -130 14 -18 29 -22 77 -23 33 -1 72 2 88 6 l27 7 0 -133 c0 -160 15
-220 68 -279 51 -57 101 -78 188 -78 83 0 104 15 104 73 0 44 -37 77 -85 77
-25 0 -40 8 -59 31 l-26 31 0 308 c0 284 -2 314 -20 362 -23 63 -85 128 -150
157 -50 23 -185 28 -249 9z"/>
<path d="M2041 2314 c-20 -26 -21 -38 -21 -384 0 -337 1 -359 19 -381 27 -34
99 -34 135 0 26 24 26 26 26 183 l0 159 143 -3 142 -3 5 -220 c5 -202 7 -223
27 -261 44 -83 116 -124 218 -124 75 0 105 20 105 70 0 40 -30 68 -81 76 -23
4 -53 17 -68 30 l-26 22 -5 417 c-6 473 0 445 -91 445 -68 0 -73 -10 -79 -164
l-5 -131 -142 -3 -143 -3 0 126 c0 120 -1 127 -25 150 -35 36 -105 35 -134 -1z"/>
<path d="M1181 2221 c-30 -30 -34 -71 -29 -304 4 -191 6 -216 25 -252 50 -96
119 -135 245 -136 119 -2 189 39 234 136 50 107 21 195 -65 195 -56 0 -89 -31
-100 -95 -15 -81 -65 -107 -118 -61 -27 24 -28 26 -28 133 l0 108 150 3 c139
2 151 4 168 23 21 26 22 78 3 105 -13 17 -31 20 -168 24 l-153 5 -5 54 c-7 65
-25 81 -92 81 -34 0 -54 -6 -67 -19z"/>
<path d="M957 2099 c-57 -13 -91 -34 -129 -79 -50 -58 -58 -96 -58 -281 0
-194 4 -203 77 -212 49 -5 79 4 100 32 9 11 12 66 13 177 0 147 2 162 20 182
11 12 33 24 48 28 55 12 81 26 92 53 13 32 0 76 -28 97 -19 15 -79 16 -135 3z"/>
<path d="M2908 2097 c-48 -14 -62 -22 -112 -66 -108 -97 -124 -265 -38 -391
29 -42 51 -62 102 -88 62 -33 68 -34 155 -30 106 5 150 24 213 91 57 62 74
107 76 197 1 64 -3 84 -27 132 -30 62 -75 106 -139 139 -51 26 -165 34 -230
16z m153 -162 c115 -60 75 -255 -52 -255 -55 0 -88 19 -110 62 -36 71 -21 144
40 185 40 27 80 29 122 8z"/>
<path d="M3376 2089 l-26 -20 0 -171 c0 -192 7 -230 58 -288 54 -64 103 -85
197 -84 91 0 137 19 192 76 62 65 73 105 73 280 0 94 -4 167 -11 181 -22 48
-97 62 -143 26 -26 -20 -26 -20 -26 -168 0 -160 -8 -201 -45 -225 -35 -23 -53
-20 -86 13 l-29 29 0 149 c0 81 -3 158 -6 171 -14 49 -101 68 -148 31z"/>
<path d="M4199 2096 c-59 -21 -96 -53 -123 -108 -23 -46 -26 -64 -26 -154 0
-87 -3 -105 -21 -128 -13 -17 -30 -26 -49 -26 -62 0 -102 -81 -63 -129 45 -55
191 -27 256 50 45 52 57 97 57 210 0 112 11 134 70 144 25 4 47 16 60 32 65
83 -39 153 -161 109z"/>
<path d="M4635 2101 c-88 -23 -159 -84 -198 -170 -26 -58 -28 -177 -3 -234 25
-56 94 -127 151 -153 43 -21 66 -24 163 -24 131 0 152 11 152 79 0 57 -25 71
-120 71 -51 0 -86 6 -110 18 -98 49 -108 187 -17 242 33 20 67 26 67 12 0 -4
-20 -28 -45 -52 -34 -33 -45 -52 -45 -75 1 -54 43 -86 104 -77 45 7 226 186
226 224 0 66 -114 138 -228 144 -37 2 -80 0 -97 -5z"/>
<path d="M5209 1961 c-31 -32 -39 -83 -19 -122 8 -14 7 -25 -5 -41 -8 -13 -15
-42 -15 -66 0 -35 6 -49 29 -72 51 -52 111 -52 162 0 33 33 39 91 15 139 -9
17 -11 32 -5 42 5 8 9 31 9 52 0 55 -43 97 -100 97 -33 0 -48 -6 -71 -29z
m100 -55 c18 -21 2 -46 -29 -46 -31 0 -42 16 -28 43 10 20 41 22 57 3z m13
-151 c9 -21 8 -28 -7 -45 -10 -11 -26 -20 -35 -20 -9 0 -25 9 -35 20 -27 30
-7 70 35 70 23 0 33 -6 42 -25z"/>
<path d="M5435 1968 c-3 -13 -4 -92 -3 -177 3 -131 6 -155 20 -164 12 -8 21
-7 32 2 13 11 16 40 16 175 0 113 -4 166 -12 174 -19 19 -47 14 -53 -10z"/>
<path d="M5537 1984 c-4 -4 -7 -48 -7 -97 0 -88 0 -89 34 -123 27 -27 42 -34
74 -34 l41 0 3 -46 c3 -54 26 -77 52 -55 13 11 16 39 16 171 0 170 -3 190 -29
190 -33 0 -41 -22 -41 -107 l0 -83 -27 0 c-49 0 -57 13 -63 102 -4 74 -7 83
-25 86 -12 2 -24 0 -28 -4z"/>
<path d="M5510 1138 c-12 -22 -12 -22 6 -6 10 10 15 20 12 24 -4 3 -12 -5 -18
-18z"/>
<path d="M3222 1040 c0 -67 3 -95 8 -78 4 14 4 61 0 105 l-7 78 -1 -105z"/>
<path d="M4143 1039 c-1 -54 1 -99 5 -99 4 0 21 26 37 57 42 78 55 79 55 4 0
-38 4 -61 11 -61 6 0 8 7 5 16 -3 9 -6 38 -6 65 0 35 -4 49 -14 49 -14 0 -49
-38 -72 -76 -9 -15 -10 -2 -6 57 2 42 1 79 -4 82 -5 3 -10 -39 -11 -94z"/>
<path d="M4028 1124 c-4 -4 -5 -18 -2 -30 5 -18 2 -24 -10 -24 -9 0 -16 -4
-16 -10 0 -5 5 -10 10 -10 6 0 10 -15 10 -33 0 -43 25 -77 56 -77 13 0 24 5
24 11 0 6 -8 8 -19 4 -26 -8 -49 26 -43 64 3 23 11 31 35 37 l32 8 -32 3 c-27
4 -32 9 -35 35 -2 16 -6 27 -10 22z"/>
<path d="M5040 1113 c0 -5 5 -15 10 -23 8 -12 10 -11 10 8 0 12 -4 22 -10 22
-5 0 -10 -3 -10 -7z"/>
<path d="M2745 1069 c5 -51 32 -129 45 -129 4 0 10 10 14 23 5 21 73 95 78 86
2 -2 16 -31 32 -64 l28 -59 13 29 c6 17 26 52 44 79 32 51 39 76 21 76 -5 0
-10 -8 -10 -17 0 -19 -60 -123 -71 -123 -6 0 -30 58 -45 109 -4 13 -30 -13
-95 -93 -16 -20 -17 -20 -27 19 -6 22 -15 56 -21 75 -10 34 -11 34 -6 -11z"/>
<path d="M3083 1088 c-15 -20 -33 -78 -33 -109 0 -45 20 -46 57 -4 l33 38 0
-36 c0 -67 15 -38 17 33 3 67 2 71 -23 80 -33 13 -40 13 -51 -2z m56 -17 c12
-8 12 -14 -4 -38 -24 -38 -57 -73 -68 -73 -11 0 -4 51 12 93 11 27 34 34 60
18z"/>
<path d="M4911 1091 c-7 -5 -18 -33 -25 -62 -21 -95 0 -116 53 -51 l30 37 1
-37 c0 -21 3 -38 8 -38 4 0 7 31 7 70 0 62 -2 70 -23 80 -28 12 -33 12 -51 1z
m57 -32 c3 -18 -53 -99 -69 -99 -15 0 -4 87 13 107 14 18 52 13 56 -8z"/>
<path d="M3279 1075 c-15 -8 -29 -21 -33 -30 -4 -11 2 -10 23 6 28 21 72 23
77 4 6 -20 -26 -48 -55 -48 l-30 0 20 -29 c41 -57 88 -70 104 -30 5 14 4 15
-6 5 -20 -20 -43 -16 -68 11 l-23 24 28 14 c37 18 52 43 38 66 -14 22 -43 25
-75 7z"/>
<path d="M3427 1067 c-22 -33 -31 -105 -17 -122 15 -18 52 -19 68 -3 20 20 13
32 -7 14 -22 -20 -61 -14 -61 9 0 23 12 45 25 45 18 0 45 34 45 58 0 30 -33
29 -53 -1z m29 -25 c-23 -23 -33 -6 -10 19 12 13 20 16 22 9 3 -7 -3 -19 -12
-28z"/>
<path d="M4327 1067 c-35 -54 -33 -137 4 -137 25 0 59 18 59 31 0 5 -11 3 -24
-6 -29 -19 -56 -10 -56 20 0 16 11 30 36 44 26 16 35 27 32 43 -4 31 -32 34
-51 5z m43 0 c0 -17 -20 -37 -37 -37 -10 0 -10 6 3 25 18 27 34 33 34 12z"/>
<path d="M4782 1061 c-27 -38 -31 -118 -6 -128 21 -8 66 8 72 25 3 10 -3 9
-22 -3 -32 -21 -56 -13 -56 19 0 17 10 30 36 45 26 16 35 27 32 43 -5 34 -31
33 -56 -1z m48 4 c0 -15 -38 -41 -47 -32 -5 5 33 47 42 47 3 0 5 -7 5 -15z"/>
<path d="M3775 1065 c-19 -15 -19 -15 8 -9 l27 6 2 -108 c1 -84 3 -96 7 -54 6
54 6 54 41 55 32 0 35 3 38 31 6 62 -77 116 -123 79z m95 -27 c11 -12 20 -32
20 -45 0 -20 -5 -23 -35 -23 -35 0 -35 0 -35 45 0 51 16 59 50 23z"/>
<path d="M4517 1045 c-39 -82 2 -137 64 -85 28 23 18 26 -15 5 -27 -18 -56
-10 -56 15 0 31 22 80 35 80 8 0 19 -8 24 -17 9 -16 10 -16 11 3 0 19 -17 34
-39 34 -4 0 -15 -16 -24 -35z"/>
<path d="M5176 1058 c-19 -29 -29 -99 -18 -117 12 -17 46 -7 72 22 32 34 23
38 -10 5 -33 -33 -53 -33 -58 0 -3 22 35 102 50 102 4 0 15 -14 23 -31 9 -17
19 -29 22 -26 2 3 -1 16 -8 29 -23 44 -51 50 -73 16z"/>
<path d="M5291 1055 c0 -16 4 -50 8 -75 l7 -45 7 35 c8 38 31 70 62 88 11 6
14 12 7 12 -8 0 -27 -13 -44 -30 -33 -33 -43 -38 -34 -15 3 8 1 25 -4 37 -8
21 -9 21 -9 -7z"/>
<path d="M5500 1053 c0 -16 -3 -45 -6 -65 -8 -48 17 -62 49 -28 l22 22 -23
-11 c-33 -17 -39 -8 -34 54 2 30 2 55 -2 55 -3 0 -6 -12 -6 -27z"/>
<path d="M5892 1009 c2 -41 8 -74 14 -76 6 -2 34 17 63 43 l51 46 0 -72 c0
-79 -10 -107 -43 -119 -52 -20 -111 36 -71 67 11 8 13 12 5 10 -25 -7 -37 -36
-25 -55 16 -26 62 -46 90 -39 45 12 55 43 52 162 -2 71 -6 102 -11 89 -22 -52
-33 -66 -67 -90 -20 -14 -40 -25 -44 -25 -4 0 -5 26 -1 59 4 40 3 61 -5 66 -8
5 -10 -14 -8 -66z"/>
<path d="M6104 1055 c-8 -13 -16 -45 -17 -72 -2 -58 17 -67 59 -28 l29 27 -29
-21 c-16 -12 -35 -21 -42 -21 -27 0 -11 84 22 117 19 20 33 7 44 -39 l8 -33 1
31 c1 31 -24 64 -47 64 -6 0 -19 -11 -28 -25z"/>
<path d="M3612 1013 c-1 -36 3 -65 9 -69 6 -3 25 8 43 25 39 38 44 38 48 4 2
-20 9 -29 26 -31 12 -2 22 1 22 7 0 6 -10 11 -21 11 -20 0 -21 3 -15 58 l6 57
-21 -35 c-20 -34 -66 -79 -81 -80 -4 0 -9 26 -11 58 l-3 57 -2 -62z"/>
<path d="M4648 1005 c4 -63 22 -94 22 -36 0 20 11 41 34 65 41 45 30 48 -13 4
l-31 -32 0 32 c0 18 -3 32 -7 32 -5 0 -6 -29 -5 -65z"/>
<path d="M5020 1060 c0 -5 5 -10 10 -10 6 0 10 -13 10 -30 0 -50 20 -80 52
-80 15 0 28 5 28 11 0 6 -8 8 -19 4 -26 -8 -51 20 -51 56 0 19 6 32 18 35 55
18 56 23 5 23 -29 1 -53 -3 -53 -9z"/>
<path d="M5647 1018 l-32 -53 -5 50 -5 50 -7 -44 c-3 -24 -3 -53 1 -64 7 -19
10 -18 37 20 16 22 34 49 40 59 13 20 12 22 29 -61 6 -27 32 -34 53 -13 21 21
13 32 -9 12 -17 -16 -22 -16 -29 -4 -6 8 -10 27 -10 42 0 33 -9 58 -21 58 -5
0 -24 -24 -42 -52z"/>
<path d="M6232 1038 c-1 -20 -4 -42 -7 -50 -3 -7 1 -22 9 -33 13 -18 15 -18
46 13 18 18 33 32 34 30 1 -2 7 -15 14 -30 12 -28 35 -37 47 -17 4 6 0 9 -10
7 -29 -5 -41 26 -26 67 7 20 10 39 7 42 -3 3 -9 -3 -12 -13 -8 -21 -74 -94
-86 -94 -4 0 -9 26 -11 58 -2 34 -4 43 -5 20z"/>
</g>
</svg>
